<svg width="615" height="371" viewBox="0 0 615 371" fill="none" xmlns="http://www.w3.org/2000/svg">
<path d="M101.321 230.627C122.497 223.733 178.21 209.705 248.208 224.122C252.975 225.101 256.394 229.297 256.412 234.157L256.468 244.323C256.505 251.309 249.741 256.281 243.071 254.211C220.379 247.132 171.078 237.429 110.671 259.663C105.035 261.733 98.826 258.517 97.2368 252.714L94.6128 243.14C93.1715 237.854 96.1096 232.328 101.321 230.627Z" fill="url(#paint0_radial_76_47)"/>
<path d="M50.624 212.486C49.3471 208.864 48.4631 204.66 50.471 201.386L53.6219 196.248C54.1976 195.309 53.9037 194.081 52.9654 193.505V193.505C52.026 192.928 50.7966 193.222 50.2203 194.162L46.3598 200.459C44.8528 202.917 41.7034 203.705 38.8278 203.493V203.493C31.3809 202.976 24.9318 208.576 24.4144 216.024C24.3388 217.077 24.3885 218.111 24.5493 219.112C25.0253 222.076 24.9007 225.353 22.8437 227.539V227.539C20.8111 229.738 18.6491 232.012 16.4131 234.691C14.1587 237.371 11.8859 240.439 9.48364 244.376L4.14329 253.137C-1.49271 262.378 0.5769 274.595 9.3358 281.415C18.7415 288.752 32.3233 287.052 39.6409 277.644C46.9769 268.237 45.2769 254.652 35.8712 247.333C34.0788 245.929 33.3027 243.803 33.0809 241.511C32.8777 239.22 33.2473 236.743 34.0049 234.377C34.3196 233.393 34.6995 232.428 35.1248 231.475C35.4347 230.781 36.1831 230.426 36.943 230.459V230.459C41.4926 230.772 45.675 228.79 48.3555 225.501C48.3693 225.484 48.3967 225.48 48.4175 225.487V225.487C48.4387 225.494 48.4673 225.49 48.4806 225.472C48.7471 225.112 48.9794 224.736 49.1944 224.36C50.414 222.493 51.1901 220.312 51.3564 217.928C51.4881 216.018 51.22 214.177 50.624 212.486Z" fill="#6A8FC6"/>
<path d="M96.0171 216.784C112.592 209.225 168.398 188.784 254.139 208.689C257.022 209.354 260.034 208.855 262.529 207.266L304.309 180.485C311.423 175.92 310.832 165.33 303.237 161.578L173.96 97.9619C170.763 96.3909 166.994 96.4833 163.871 98.2206L39.5092 167.547C32.321 171.558 32.0254 181.779 38.9549 186.196L85.669 216.026C88.7734 218.041 92.6724 218.318 96.0171 216.784Z" fill="url(#paint1_radial_76_47)"/>
<path d="M169 55.712V55C169 32.9086 186.909 15 209 15H524C546.091 15 564 32.9086 564 55V316C564 338.091 546.091 356 524 356H209C186.909 356 169 338.091 169 316V283.714" stroke="url(#paint2_angular_76_47)" stroke-width="30" stroke-linecap="round" stroke-linejoin="round"/>
<defs>
<radialGradient id="paint0_radial_76_47" cx="0" cy="0" r="1" gradientUnits="userSpaceOnUse" gradientTransform="translate(175.357 239.073) rotate(90) scale(21.2197 81.1104)">
<stop stop-color="#466EB6"/>
<stop offset="0.197917" stop-color="#466EB6"/>
<stop offset="1" stop-color="#466EB6"/>
</radialGradient>
<radialGradient id="paint1_radial_76_47" cx="0" cy="0" r="1" gradientUnits="userSpaceOnUse" gradientTransform="translate(171.62 157.306) rotate(90) scale(60.4585 137.687)">
<stop stop-color="#466EB6"/>
<stop offset="0.197917" stop-color="#466EB6"/>
<stop offset="1" stop-color="#466EB6"/>
</radialGradient>
<radialGradient id="paint2_angular_76_47" cx="0" cy="0" r="1" gradientUnits="userSpaceOnUse" gradientTransform="translate(366.5 185.5) rotate(90) scale(170.5 197.5)">
<stop stop-color="#466EB6"/>
<stop offset="0.164172" stop-color="#78A8E7"/>
<stop offset="0.362857" stop-color="#7BABEA"/>
<stop offset="0.472412" stop-color="#466EB6"/>
</radialGradient>
</defs>
</svg>
