<svg width="624" height="360" viewBox="0 0 624 360" fill="none" xmlns="http://www.w3.org/2000/svg">
<path d="M96.0171 204.784C112.592 197.225 168.398 176.784 254.139 196.689C257.022 197.354 260.034 196.855 262.529 195.266L304.309 168.485C311.423 163.92 310.832 153.33 303.237 149.578L173.96 85.9619C170.763 84.3909 166.994 84.4833 163.871 86.2206L39.5092 155.547C32.321 159.558 32.0254 169.779 38.9549 174.196L85.669 204.026C88.7734 206.041 92.6725 206.318 96.0171 204.784Z" fill="url(#paint0_radial_76_47)"/>
<path d="M49.624 201.486C48.3471 197.864 47.4631 193.66 49.471 190.386L52.6219 185.248C53.1976 184.309 52.9037 183.081 51.9654 182.505C51.026 181.928 49.7966 182.222 49.2203 183.162L45.3598 189.459C43.8528 191.917 40.7034 192.705 37.8278 192.493C30.3809 191.976 23.9318 197.576 23.4144 205.024C23.3388 206.077 23.3885 207.111 23.5493 208.112C24.0253 211.076 23.9007 214.353 21.8437 216.539C19.8111 218.738 17.6491 221.012 15.4131 223.691C13.1587 226.371 10.8859 229.439 8.48364 233.376L3.14329 242.137C-2.49271 251.378 -0.4231 263.595 8.3358 270.415C17.7415 277.752 31.3233 276.052 38.6409 266.644C45.9769 257.237 44.2769 243.652 34.8712 236.333C33.0788 234.929 32.3027 232.803 32.0809 230.511C31.8777 228.22 32.2472 225.743 33.0049 223.377C33.3196 222.393 33.6995 221.428 34.1248 220.475C34.4347 219.781 35.1831 219.426 35.943 219.459C40.4926 219.772 44.675 217.79 47.3555 214.501C47.3693 214.484 47.3967 214.48 47.4175 214.487C47.4387 214.494 47.4673 214.49 47.4806 214.472C47.7471 214.112 47.9794 213.736 48.1944 213.36C49.414 211.493 50.1901 209.312 50.3564 206.928C50.4881 205.018 50.22 203.177 49.624 201.486Z" fill="url(#paint1_linear_76_47)"/>
<path d="M101.321 218.627C122.497 211.733 178.21 197.705 248.208 212.122C252.975 213.101 256.394 217.297 256.412 222.157L256.468 232.323C256.505 239.309 249.741 244.281 243.071 242.211C220.379 235.132 171.078 225.429 110.671 247.663C105.035 249.733 98.826 246.517 97.2368 240.714L94.6128 231.14C93.1715 225.854 96.1096 220.328 101.321 218.627Z" fill="url(#paint2_radial_76_47)"/>
<path d="M169.475 50.6595V50C169.475 27.9086 187.383 10 209.475 10H574.726C596.817 10 614.726 27.9086 614.726 50V310.56C614.726 332.652 596.817 350.56 574.726 350.56H209.475C187.383 350.56 169.475 332.652 169.475 310.56V278.367" stroke="url(#paint3_angular_76_47)" stroke-width="18.549" stroke-linecap="round" stroke-linejoin="round"/>
<defs>
<radialGradient id="paint0_radial_76_47" cx="0" cy="0" r="1" gradientUnits="userSpaceOnUse" gradientTransform="translate(171.62 145.306) rotate(90) scale(60.4585 137.687)">
<stop stop-color="#BDB1A3" stop-opacity="0"/>
<stop offset="0.0001" stop-color="#F3A275" stop-opacity="0.901042"/>
<stop offset="0.552083" stop-color="#DB9C51" stop-opacity="0.986903"/>
<stop offset="1" stop-color="#F1723B"/>
</radialGradient>
<linearGradient id="paint1_linear_76_47" x1="48.5" y1="181" x2="26.832" y2="274.976" gradientUnits="userSpaceOnUse">
<stop stop-color="#E09032" stop-opacity="0"/>
<stop offset="0.0001" stop-color="#F3A275" stop-opacity="0.901042"/>
<stop offset="0.552083" stop-color="#DB9C51" stop-opacity="0.986903"/>
<stop offset="1" stop-color="#F1723B"/>
</linearGradient>
<radialGradient id="paint2_radial_76_47" cx="0" cy="0" r="1" gradientUnits="userSpaceOnUse" gradientTransform="translate(175.357 227.073) rotate(90) scale(21.2197 81.1104)">
<stop stop-color="#BDB1A3" stop-opacity="0"/>
<stop offset="0.0001" stop-color="#F3A275" stop-opacity="0.901042"/>
<stop offset="0.552083" stop-color="#DB9C51" stop-opacity="0.986903"/>
<stop offset="1" stop-color="#F1723B"/>
</radialGradient>
<radialGradient id="paint3_angular_76_47" cx="0" cy="0" r="1" gradientUnits="userSpaceOnUse" gradientTransform="translate(392.1 180.28) rotate(90) scale(170.28 222.625)">
<stop stop-color="#EE783E"/>
<stop offset="0.164172" stop-color="#FAC4A2"/>
<stop offset="0.254901" stop-color="#FFA96B" stop-opacity="0.211087"/>
<stop offset="0.362857" stop-color="#FDD2B5"/>
<stop offset="0.472412" stop-color="#DC9761"/>
</radialGradient>
</defs>
</svg>
